<svg id="icons" enable-background="new 0 0 64 64" height="512" viewBox="0 0 64 64" width="512" xmlns="http://www.w3.org/2000/svg"><path d="m48 43.997c0-7.894-5.751-14.453-13.279-15.751.175-.38.278-.799.278-1.244v-2c0-.771-.301-1.469-.781-2.001.48-.532.781-1.229.781-2.001v-2c0-.507-.138-.978-.361-1.396 3.679-1.131 6.362-4.56 6.362-8.605 0-4.963-4.038-9-9.001-9s-9.001 4.037-9.001 9c0 4.045 2.683 7.474 6.362 8.604-.223.419-.361.89-.361 1.396v2c0 .771.301 1.469.781 2.001-.48.532-.781 1.229-.781 2.001v2c0 .445.104.864.278 1.244-7.527 1.3-13.277 7.859-13.277 15.752 0 .013.002.025.002.038v3.956c0 .004-.002.007-.002.01 0 8.822 7.178 16 16 16s16-7.178 16-16c0-.003-.002-.006-.002-.01v-3.956c0-.013.002-.025.002-.038zm-23.002-34.998c0-3.859 3.141-7 7.001-7s7.001 3.141 7.001 7c0 3.86-3.141 7.001-7.001 7.001s-7.001-3.141-7.001-7.001zm8.001 10.001v2c0 .552-.448 1-1 1s-1-.448-1-1v-2c0-.552.448-1 1-1s1 .448 1 1zm-2 8.002v-2c0-.552.448-1 1-1s1 .448 1 1v2c0 .545-.438.985-.98.996-.006 0-.013-.001-.019-.001-.007 0-.014.001-.021.001-.541-.011-.98-.451-.98-.996zm.968 2.997c.012 0 .021.003.032.003s.021-.003.032-.003c7.703.017 13.964 6.285 13.969 13.99 0 .003-.002.005-.002.008v.038c-.021 7.702-6.291 13.962-13.998 13.962s-13.977-6.26-13.998-13.962v-.038c0-.003-.002-.005-.002-.008.005-7.705 6.266-13.972 13.967-13.99zm.033 32.002c-5.805 0-10.794-3.552-12.912-8.595 2.912 3.986 7.608 6.591 12.912 6.591s10-2.605 12.912-6.591c-2.118 5.043-7.107 8.595-12.912 8.595z"/><path d="m24.053 49.269c.017.061.032.118.061.174.026.054.063.101.101.149.043.058.086.11.14.157.018.015.026.036.045.05.041.031.088.045.132.069.039.021.073.044.115.06.114.044.232.071.352.071h.001 4.005 1.995 10.005.001c.119 0 .237-.027.352-.071.041-.016.075-.038.113-.059.045-.024.093-.039.135-.07.02-.015.028-.036.046-.052.053-.045.094-.098.136-.152.038-.05.076-.098.104-.153.027-.055.043-.113.061-.174.019-.066.035-.131.04-.2.002-.023.014-.044.014-.068 0-.041-.019-.075-.023-.115-.008-.067-.018-.131-.039-.196-.022-.066-.054-.126-.089-.186-.02-.033-.025-.071-.049-.104l-6.003-8c-.03-.041-.074-.063-.109-.098-.033-.032-.053-.073-.091-.102-.016-.012-.033-.013-.049-.023-.063-.041-.129-.067-.197-.094-.054-.021-.105-.045-.161-.056-.065-.013-.13-.01-.196-.01-.063 0-.123-.003-.185.01-.061.011-.116.037-.174.06-.064.025-.126.049-.185.088-.017.011-.037.013-.054.025-.041.03-.063.074-.098.109-.032.033-.073.053-.102.091l-2.701 3.604-1.202-1.604c-.031-.041-.075-.063-.11-.099-.033-.032-.053-.073-.091-.102-.015-.012-.033-.013-.049-.023-.063-.042-.13-.068-.2-.095-.053-.02-.102-.044-.156-.055-.068-.014-.135-.011-.204-.01-.061 0-.118-.003-.177.009-.061.012-.116.037-.175.061-.065.025-.128.05-.188.09-.016.01-.034.012-.05.023-.038.028-.059.069-.091.102-.036.035-.08.058-.11.099l-4.498 6c-.023.031-.029.068-.049.102-.035.06-.066.119-.089.187-.021.065-.032.131-.04.199-.004.038-.022.072-.022.112 0 .024.012.044.014.067.002.071.018.135.038.203zm10.947-6.603 4.002 5.333h-8zm-6.497 5.333h-1.506l2.5-3.334.753 1.004z"/><path d="m26.5 40.993c1.377 0 2.498-1.121 2.498-2.498s-1.121-2.498-2.498-2.498-2.498 1.121-2.498 2.498 1.121 2.498 2.498 2.498zm0-2.996c.274 0 .498.224.498.498s-.224.498-.498.498-.498-.224-.498-.498.224-.498.498-.498z"/><path d="m37.999 8.999c0-3.309-2.691-6-6-6s-6 2.691-6 6 2.691 6 6 6 6-2.691 6-6zm-10 0c0-2.206 1.794-4 4-4s4 1.794 4 4-1.794 4-4 4-4-1.794-4-4z"/></svg>